<?xml version="1.0" encoding="UTF-8"?> <!-- Generator: Adobe Illustrator 24.1.0, SVG Export Plug-In . SVG Version: 6.00 Build 0) --> <svg xmlns="http://www.w3.org/2000/svg" xmlns:xlink="http://www.w3.org/1999/xlink" id="Layer_1" x="0px" y="0px" viewBox="0 0 97.4 100" style="enable-background:new 0 0 97.4 100;" xml:space="preserve"> <style type="text/css"> .st0{fill:none;stroke:#FFFFFF;stroke-width:2;stroke-linecap:round;stroke-linejoin:round;} .st1{fill:none;stroke:#FFFFFF;stroke-width:2;stroke-linecap:round;stroke-linejoin:round;stroke-miterlimit:10;} </style> <g> <path class="st0" d="M13.9,54.2l7.8-7.8c2.4-2.4,6.1-2.4,8.5,0l0,0c2.4,2.4,2.4,6.1,0,8.5l-7.8,7.8c-2.4,2.4-6.1,2.4-8.5,0l0,0 C11.5,60.3,11.5,56.5,13.9,54.2z"></path> <path class="st0" d="M22.4,62.7l7.8-7.8c2.4-2.4,6.1-2.4,8.5,0l0,0c2.4,2.4,2.4,6.1,0,8.5l-7.8,7.8c-2.4,2.4-6.1,2.4-8.5,0l0,0 C20.2,68.8,20.2,65,22.4,62.7z"></path> <path class="st0" d="M30.9,71.2l7.8-7.8c2.4-2.4,6.1-2.4,8.5,0l0,0c2.4,2.4,2.4,6.1,0,8.5l-7.8,7.8c-2.4,2.4-6.1,2.4-8.5,0l0,0 C28.5,77.3,28.5,73.5,30.9,71.2z"></path> <path class="st0" d="M39.4,79.7l7.8-7.8c2.4-2.4,6.1-2.4,8.5,0l0,0c2.4,2.4,2.4,6.1,0,8.5l-7.8,7.8c-2.4,2.4-6.1,2.4-8.5,0l0,0 C37,85.8,37,82,39.4,79.7z"></path> <path class="st0" d="M49.2,54.4l17.4,17.4c2.2,2,2.4,5.5,0.4,7.8c-2,2.2-5.5,2.4-7.8,0.4c-0.1-0.1-0.2-0.2-0.4-0.4l-1.3-1.3"></path> <path class="st0" d="M57.6,47.2L74.3,64c2,2.2,1.9,5.7-0.4,7.8c-2.1,1.9-5.3,1.9-7.4,0L49.3,54.4"></path> <path class="st0" d="M74.8,48.8l7.1,7.1c2.2,2,2.4,5.5,0.4,7.8c-2,2.2-5.5,2.4-7.8,0.4c-0.1-0.1-0.2-0.2-0.4-0.4L57.6,47.2"></path> <path class="st0" d="M14.7,53.4l-2.6-2.6c-23.3-23.3,8.1-56.6,32.3-32.3l4.3,4.4l4.3-4.3C77.2-5.6,108.5,27.7,85.3,51l-4.3,4.3 l-0.7-0.7l-23-22.9l-11,11c-2.7,2.7-7.2,2.7-9.9,0l-0.8-0.8c-1.5-1.7-1.5-4.1,0-5.8l13.1-13.1"></path> </g> </svg> 