<?xml version="1.0" encoding="UTF-8"?> <!-- Generator: Adobe Illustrator 24.1.0, SVG Export Plug-In . SVG Version: 6.00 Build 0) --> <svg xmlns="http://www.w3.org/2000/svg" xmlns:xlink="http://www.w3.org/1999/xlink" id="Layer_1" x="0px" y="0px" viewBox="0 0 97.4 100" style="enable-background:new 0 0 97.4 100;" xml:space="preserve"> <style type="text/css"> .st0{fill:none;stroke:#FFFFFF;stroke-width:2;stroke-linecap:round;stroke-linejoin:round;} .st1{fill:none;stroke:#FFFFFF;stroke-width:2;stroke-linecap:round;stroke-linejoin:round;stroke-miterlimit:10;} </style> <path class="st1" d="M81.3,73.5V50.9V36.8V20.6c0-4.2-3.4-7.8-7.3-7.2c-0.2,0-0.3,0-0.6,0.1c-2.4,0.6-4.1,3-4.1,5.6v25.9 c0,0,0-23.6,0-30.3c0-4-2.7-7.1-6.9-7.1s-6.6,3.1-6.6,6.4V45h-0.1V9.7c0-4.6-3.4-6.3-6.6-6.6c-0.1,0-0.3,0-0.5,0 c-1,0-1.9,0.2-2.7,0.6c-2.2,1-3.5,3.4-3.5,6.1V45V12.3C42.3,9,39,6,35.9,6c-0.1,0-0.8,0-0.9,0c-3.4,0.2-6.1,3.4-6.1,7.2v23.7v11.4 v13.3l-8-12.2c-2.3-3.1-6.4-4.1-9.6-1.9C7.7,49.9,6.9,55,9.5,58.5l12.6,17.4c3.2,4.5,5.8,9.4,8.1,14.4c2.1,4.5,6.4,7.7,11.3,7.7 h27.1"></path> <path class="st1" d="M57.8,52.6c-0.1,0.1-0.1,0.1-0.2,0.2c-0.8,1-0.7,2.5,0.2,3.5l10.1,11.6l0,0c0,0-9.4-10.6-11.6-13.2 c-1.3-1.5-3.3-1.7-5-0.2c-1.7,1.5-1.6,3.4-0.6,4.6l11.8,13.4l0,0l-12.9-15c-1.5-1.7-3.4-1.1-4.7-0.1c-0.1,0-0.1,0.1-0.2,0.1 c-0.3,0.3-0.7,0.7-0.9,1.1c-0.6,1.1-0.2,2.5,0.6,3.4l13.2,15l0,0L45.1,63c-1.1-1.3-3.3-1.1-4.6-0.1c-0.1,0.1-0.3,0.2-0.3,0.3 c-1.3,1.3-1.3,3.3-0.1,4.7l8.7,10l3.7,4.2l2.5,2.9c0.5,0.6,0,1.4-0.7,1.1L47,84.9c-1.9-0.3-3.9,0.7-4.3,2.5 c-0.7,2.2,0.7,4.3,2.9,4.7l13.4,2.6c2.7,0.6,5.3,1.5,7.9,2.5c2.3,0.9,4.9,0.6,7-1.1l9.3-8.1c3.4-3.1,3.8-8.4,0.8-11.8l-9.7-11.1 l-4.6-5.1l-6.3-7.2C61.7,51.1,59.3,51,57.8,52.6z"></path> </svg> 