<?xml version="1.0" encoding="UTF-8"?> <!-- Generator: Adobe Illustrator 23.0.6, SVG Export Plug-In --> <svg xmlns="http://www.w3.org/2000/svg" xmlns:xlink="http://www.w3.org/1999/xlink" x="0px" y="0px" width="68px" height="107.2px" viewBox="0 0 68 107.2" style="enable-background:new 0 0 68 107.2;" xml:space="preserve"> <style type="text/css"> .st0{fill:none;stroke:#000;stroke-width:1.5;stroke-linecap:round;stroke-linejoin:round;stroke-miterlimit:10;} .st1{fill:#FFFFFF;stroke:#000;stroke-miterlimit:10;} </style> <defs> </defs> <g> <path class="st0" d="M18.6,0.8c-2.2,0-4,1.4-4.8,3.3c-0.1,0.2-0.3,0.2-0.4,0c-0.8-2.1-3-3.6-5.5-3.2c-2.1,0.3-3.8,1.9-4.2,4 c-1.2,5.7,7.3,11.5,9.4,14.6c0.2,0.3,0.7,0.3,1,0c2-3,9.6-8.8,9.6-13.5C23.8,3,21.5,0.8,18.6,0.8z"></path> <polygon class="st0" points="60.4,94.8 60.4,54.5 6.2,54.5 6.2,94.8 13.4,94.8 26.3,94.8 "></polygon> <path class="st0" d="M34.1,54.5h27.4c1.5,0,2.2-1.7,1.2-2.8L35.3,21.9c-0.7-0.7-1.8-0.7-2.4,0L4,51.7c-1,1.1-0.3,2.8,1.2,2.8H34.1z "></path> <polyline class="st0" points="9.5,45.6 9.5,28.7 17.9,28.7 17.9,37.2 "></polyline> <rect x="8.5" y="23.5" class="st0" width="10.4" height="5.2"></rect> <rect x="0.8" y="94.8" class="st0" width="66.5" height="11.6"></rect> <rect x="24.2" y="94.8" class="st0" width="18.3" height="5.8"></rect> <rect x="24.2" y="100.6" class="st0" width="18.3" height="5.8"></rect> <rect x="27.9" y="73.9" class="st0" width="10.9" height="21"></rect> <polygon class="st0" points="21,85.8 11.6,85.8 11.6,76.4 16,76.4 21,76.4 "></polygon> <polygon class="st0" points="54,85.8 44.6,85.8 44.6,76.4 49,76.4 54,76.4 "></polygon> <polygon class="st0" points="21,68.9 11.6,68.9 11.6,59.5 16,59.5 21,59.5 "></polygon> <polygon class="st0" points="54,68.9 44.6,68.9 44.6,59.5 49,59.5 54,59.5 "></polygon> <circle class="st1" cx="31.7" cy="85.9" r="1.2"></circle> </g> </svg> 