<?xml version="1.0" encoding="UTF-8"?> <!-- Generator: Adobe Illustrator 23.0.6, SVG Export Plug-In --> <svg xmlns="http://www.w3.org/2000/svg" xmlns:xlink="http://www.w3.org/1999/xlink" x="0px" y="0px" width="69.4px" height="84.5px" viewBox="0 0 69.4 84.5" style="enable-background:new 0 0 69.4 84.5;" xml:space="preserve"> <style type="text/css"> .st0{fill:none;stroke:#000000;stroke-width:1.5;stroke-linecap:round;stroke-linejoin:round;stroke-miterlimit:10;} </style> <defs> </defs> <g> <path class="st0" d="M64.9,62.4V42.6V30.3l0-14.2c0-3.7-3-6.8-6.4-6.3c-0.2,0-0.3,0-0.5,0.1c-2.1,0.5-3.6,2.6-3.6,4.9l0,22.6 c0,0,0-20.6,0-26.5c0-3.5-2.4-6.2-6-6.2c-3.6,0-5.8,2.7-5.8,5.6l0,27.2h-0.1V6.6c0-4-3-5.5-5.8-5.8c-0.1,0-0.3,0-0.4,0 c-0.9,0-1.7,0.2-2.4,0.5c-1.9,0.9-3.1,3-3.1,5.3l0,30.9l0-28.6c0-2.9-2.9-5.5-5.6-5.5c-0.1,0-0.7,0-0.8,0c-3,0.2-5.3,3-5.3,6.3 l0,20.7v10l0,11.6l-7-10.7c-2-2.7-5.6-3.6-8.4-1.7c-3.2,2.1-3.9,6.6-1.6,9.7l11,15.2c2.8,3.9,5.1,8.2,7.1,12.6 c1.8,3.9,5.6,6.7,9.9,6.7h23.7"></path> <path class="st0" d="M44.3,44c-0.1,0.1-0.1,0.1-0.2,0.2c-0.7,0.9-0.6,2.2,0.2,3.1l8.8,10.1l0,0c0,0-8.2-9.3-10.1-11.5 c-1.1-1.3-2.9-1.5-4.4-0.2s-1.4,3-0.5,4l10.3,11.7l0,0L37.1,48.3c-1.3-1.5-3-1-4.1-0.1c-0.1,0-0.1,0.1-0.2,0.1 c-0.3,0.3-0.6,0.6-0.8,1c-0.5,1-0.2,2.2,0.5,3l11.5,13.1l0,0L33.2,53.2c-1-1.1-2.9-1-4-0.1c-0.1,0.1-0.3,0.2-0.3,0.3 c-1.1,1.1-1.1,2.9-0.1,4.1l7.6,8.7l3.2,3.7l2.2,2.5c0.4,0.5,0,1.2-0.6,1l-6.5-1.3c-1.7-0.3-3.4,0.6-3.8,2.2 c-0.6,1.9,0.6,3.8,2.5,4.1l11.7,2.3c2.4,0.5,4.6,1.3,6.9,2.2c2,0.8,4.3,0.5,6.1-1l8.1-7.1c3-2.7,3.3-7.3,0.7-10.3L58.4,55l-4-4.5 l-5.5-6.3C47.7,42.8,45.5,42.7,44.3,44z"></path> </g> </svg> 