<?xml version="1.0" encoding="UTF-8"?> <!-- Generator: Adobe Illustrator 24.1.0, SVG Export Plug-In . SVG Version: 6.00 Build 0) --> <svg xmlns="http://www.w3.org/2000/svg" xmlns:xlink="http://www.w3.org/1999/xlink" id="Layer_1" x="0px" y="0px" viewBox="0 0 97.4 100" style="enable-background:new 0 0 97.4 100;" xml:space="preserve"> <style type="text/css"> .st0{fill:none;stroke:#FFFFFF;stroke-width:2;stroke-linecap:round;stroke-linejoin:round;} .st1{fill:none;stroke:#FFFFFF;stroke-width:2;stroke-linecap:round;stroke-linejoin:round;stroke-miterlimit:10;} </style> <path class="st0" d="M90.4,3.4C73.6,4,60,17.2,59,34c-0.1,1.8-0.6,3.6-1.4,5.2l-5.8,12.3c-0.4,1,0,2.2,1,2.6 c0.2,0.1,0.5,0.2,0.7,0.2h5.9v13.3c0,4.1,3.3,7.4,7.4,7.4h7.1c2.1,0,3.9,1.7,3.9,3.9v13.2c0,1.6,1.3,2.8,2.8,2.9h9.8"></path> <path class="st0" d="M7.5,3.4C24.3,4,37.9,17.2,38.9,34c0.1,1.8,0.6,3.6,1.4,5.2L46,51.5c0.4,1,0,2.2-1,2.6 c-0.2,0.1-0.5,0.2-0.7,0.2h-5.9v5.6c0,8.4-6.8,15.1-15.1,15.1c-1.7,0-3,1.3-3.1,2.9c0,0.3,0,0.5,0.1,0.8l2.9,12.8 c0.3,1.5-0.6,3.1-2.2,3.4c-0.2,0-0.4,0.1-0.6,0.1H7.5"></path> <path class="st0" d="M3.5,17.5c1.9-1.8,4.7-2.9,8.4-2.9c14,0,13.9,15.7,7.3,22s-8.1,7.3-8.1,12.1v4.7"></path> <line class="st0" x1="11.3" y1="58.3" x2="11.3" y2="61.8"></line> <g> <line class="st0" x1="90.2" y1="58.3" x2="90.2" y2="61.8"></line> <polygon class="st0" points="90.2,53.4 87.9,14.6 92.2,14.6 "></polygon> </g> </svg> 