<?xml version="1.0" encoding="UTF-8"?> <!-- Generator: Adobe Illustrator 24.1.0, SVG Export Plug-In . SVG Version: 6.00 Build 0) --> <svg xmlns="http://www.w3.org/2000/svg" xmlns:xlink="http://www.w3.org/1999/xlink" id="Layer_1" x="0px" y="0px" viewBox="0 0 97.4 100" style="enable-background:new 0 0 97.4 100;" xml:space="preserve"> <style type="text/css"> .st0{fill:none;stroke:#FFFFFF;stroke-width:2;stroke-linecap:round;stroke-linejoin:round;} .st1{fill:none;stroke:#FFFFFF;stroke-width:2;stroke-linecap:round;stroke-linejoin:round;stroke-miterlimit:10;} </style> <path class="st0" d="M33.3,2.9c-2.1,0-4,1.3-4.8,3.3c0,0.1-0.2,0.2-0.3,0.1l-0.1-0.1c-1-2.6-4-3.9-6.6-2.9c-1.5,0.6-2.7,1.9-3.1,3.6 c-1.2,5.7,7.2,11.5,9.4,14.6c0.2,0.3,0.5,0.4,0.8,0.2c0.1,0,0.1-0.1,0.2-0.2c2-3,9.6-8.8,9.6-13.5C38.5,5.2,36.2,2.9,33.3,2.9 L33.3,2.9z"></path> <polygon class="st0" points="75.2,97 75.2,56.7 21,56.7 21,97 28.1,97 41.1,97 "></polygon> <path class="st0" d="M48.8,56.7h27.4c0.9,0,1.7-0.7,1.7-1.7c0-0.4-0.2-0.8-0.4-1.1L50,24.1c-0.6-0.7-1.7-0.7-2.4-0.1l-0.1,0.1 L18.8,53.9c-0.7,0.6-0.7,1.7,0,2.4c0.3,0.3,0.8,0.5,1.3,0.5h28.7V56.7z"></path> <polyline class="st0" points="24.2,47.7 24.2,30.9 32.7,30.9 32.7,39.3 "></polyline> <rect x="23.2" y="25.7" class="st0" width="10.4" height="5.2"></rect> <rect x="42.7" y="76" class="st0" width="10.9" height="20.9"></rect> <polygon class="st0" points="35.8,87.9 26.4,87.9 26.4,78.5 30.8,78.5 35.8,78.5 "></polygon> <polygon class="st0" points="68.8,87.9 59.4,87.9 59.4,78.5 63.8,78.5 68.8,78.5 "></polygon> <polygon class="st0" points="35.8,71.1 26.4,71.1 26.4,61.7 30.8,61.7 35.8,61.7 "></polygon> <polygon class="st0" points="68.8,71.1 59.4,71.1 59.4,61.7 63.8,61.7 68.8,61.7 "></polygon> <circle class="st0" cx="46.3" cy="88.1" r="1.2"></circle> </svg> 