<?xml version="1.0" encoding="UTF-8"?> <!-- Generator: Adobe Illustrator 23.0.6, SVG Export Plug-In --> <svg xmlns="http://www.w3.org/2000/svg" xmlns:xlink="http://www.w3.org/1999/xlink" x="0px" y="0px" width="77.3px" height="69.1px" viewBox="0 0 77.3 69.1" style="enable-background:new 0 0 77.3 69.1;" xml:space="preserve"> <style type="text/css"> .st0{fill:none;stroke:#000000;stroke-width:1.5;stroke-linecap:round;stroke-linejoin:round;stroke-miterlimit:10;} </style> <defs> </defs> <g> <path class="st0" d="M23,38.7l-6.6,6.6c-2,2-5.2,2-7.2,0l0,0c-2-2-2-5.2,0-7.2l6.6-6.6c2-2,5.2-2,7.2,0l0,0 C25,33.5,25,36.7,23,38.7z"></path> <path class="st0" d="M30.2,45.9l-6.6,6.6c-2,2-5.2,2-7.2,0l0,0c-2-2-2-5.2,0-7.2l6.6-6.6c2-2,5.2-2,7.2,0l0,0 C32.2,40.7,32.2,43.9,30.2,45.9z"></path> <path class="st0" d="M37.4,53.1l-6.6,6.6c-2,2-5.2,2-7.2,0l0,0c-2-2-2-5.2,0-7.2l6.6-6.6c2-2,5.2-2,7.2,0l0,0 C39.4,47.8,39.4,51.1,37.4,53.1z"></path> <path class="st0" d="M44.6,60.3L38,66.9c-2,2-5.2,2-7.2,0l0,0c-2-2-2-5.2,0-7.2l6.6-6.6c2-2,5.2-2,7.2,0l0,0 C46.6,55.1,46.6,58.3,44.6,60.3z"></path> <path class="st0" d="M39.1,38.3l14.7,14.7c1.8,1.8,1.8,4.8,0,6.6c-1.8,1.8-4.8,1.8-6.6,0l-1.1-1.1"></path> <path class="st0" d="M46.2,32.2l14.2,14.2c1.8,1.8,1.8,4.8,0,6.6c-1.8,1.8-4.8,1.8-6.6,0L39.1,38.3"></path> <path class="st0" d="M60.7,33.6l6,6c1.8,1.8,1.8,4.8,0,6.6c-1.8,1.8-4.8,1.8-6.6,0l-14-14"></path> <path class="st0" d="M9.8,37.4l-2.2-2.2C-12,15.6,14.5-12.6,35,7.9c1.4,1.4,2.3,2.3,3.6,3.6l3.6-3.6c20.5-20.5,47,7.7,27.4,27.4 L66,38.9l-0.6-0.6c0,0-0.8-0.8-19.4-19.4l-9.4,9.4c-2.3,2.3-6.1,2.3-8.4,0l-0.7-0.7c-1.4-1.4-1.4-3.5,0-4.9l11.1-11.1"></path> </g> </svg> 