<?xml version="1.0" encoding="UTF-8"?> <!-- Generator: Adobe Illustrator 23.0.6, SVG Export Plug-In --> <svg xmlns="http://www.w3.org/2000/svg" xmlns:xlink="http://www.w3.org/1999/xlink" x="0px" y="0px" width="163.8px" height="92.8px" viewBox="0 0 163.8 92.8" style="enable-background:new 0 0 163.8 92.8;" xml:space="preserve"> <style type="text/css"> .st0{fill:none;stroke:#000;stroke-width:1.5;stroke-linecap:round;stroke-linejoin:round;stroke-miterlimit:10;} </style> <defs> </defs> <g> <path class="st0" d="M163,31.9c-0.7-16.8-14.5-30.4-31.3-31.1C114,0.1,99.2,13.7,97.9,31c-0.1,1.8-0.6,3.6-1.4,5.2l-5.7,12.3 c-0.6,1.3,0.3,2.8,1.8,2.8h5.9v13.3c0,4.1,3.3,7.4,7.4,7.4h7.1c2.1,0,3.9,1.7,3.9,3.9v13.2c0,1.6,1.3,2.8,2.8,2.8h25.7 c1.6,0,2.8-1.3,2.8-2.8l0-23.8c0-2.8,1.2-5.5,3.3-7.3C159,51.9,163.5,42.4,163,31.9z"></path> <path class="st0" d="M0.8,31.9C1.5,15.1,15.3,1.4,32.1,0.8C49.8,0.1,64.6,13.7,65.9,31c0.1,1.8,0.6,3.6,1.4,5.2L73,48.5 c0.6,1.3-0.3,2.8-1.8,2.8h-5.9v5.6c0,8.4-6.8,15.1-15.1,15.1h0c-1.9,0-3.4,1.8-3,3.7l2.9,12.8c0.4,1.8-1,3.5-2.8,3.5h-29 c-1.6,0-2.8-1.3-2.8-2.8l0-23.8c0-2.8-1.2-5.5-3.3-7.3C4.8,51.9,0.3,42.4,0.8,31.9z"></path> <path class="st0" d="M21.6,24.3c0-6.4,3.2-12.8,12.2-12.8c14,0,13.9,15.7,7.3,22S33,40.8,33,45.6s0,4.8,0,4.8"></path> <line class="st0" x1="33.2" y1="55.2" x2="33.2" y2="58.8"></line> <line class="st0" x1="129.2" y1="55.2" x2="129.2" y2="58.8"></line> <polygon class="st0" points="129.2,50.4 126.8,11.6 131.2,11.6 "></polygon> <path class="st0" d="M129.2,56"></path> </g> </svg> 