<?xml version="1.0" encoding="UTF-8"?> <!-- Generator: Adobe Illustrator 23.0.6, SVG Export Plug-In --> <svg xmlns="http://www.w3.org/2000/svg" xmlns:xlink="http://www.w3.org/1999/xlink" x="0px" y="0px" width="90.6px" height="71.3px" viewBox="0 0 90.6 71.3" style="enable-background:new 0 0 90.6 71.3;" xml:space="preserve"> <style type="text/css"> .st0{fill:none;stroke:#FFFFFF;stroke-width:1.5;stroke-linecap:round;stroke-linejoin:round;stroke-miterlimit:10;} .st1{fill:none;stroke:#000;stroke-width:1.5;stroke-linecap:round;stroke-linejoin:round;stroke-miterlimit:10;} </style> <defs> </defs> <g> <g> <path class="st0" d="M0.8,42.9l2.4-14.4c1-6.3,6.5-10.9,12.8-10.9h0c6.4,0,11.8,4.6,12.8,10.9l1.6,9.6c1.1,6.5,6.7,11.3,13.3,11.3 h3.2c6.6,0,12.2-4.8,13.3-11.3l1.6-9.6c1-6.3,6.5-10.9,12.8-10.9h0c6.4,0,11.8,4.6,12.8,10.9l2.4,14.4"></path> <circle class="st0" cx="45.3" cy="35.3" r="5.5"></circle> <circle class="st0" cx="15.6" cy="6.3" r="5.5"></circle> <circle class="st0" cx="73.7" cy="6.3" r="5.5"></circle> <path class="st0" d="M24.7,39.9l1.6,12.2c0.2,1.8-1.2,3.4-3,3.4H8.2c-1.8,0-3.2-1.6-3-3.4l1.6-12.2"></path> <line class="st0" x1="68.2" y1="44.6" x2="68.2" y2="70.6"></line> <line class="st0" x1="81.6" y1="44.6" x2="81.6" y2="70.6"></line> <line class="st0" x1="9.1" y1="55.5" x2="9.1" y2="69.6"></line> <line class="st0" x1="22.5" y1="55.5" x2="22.5" y2="69.6"></line> <line class="st0" x1="40.4" y1="55.5" x2="40.4" y2="69.6"></line> <line class="st0" x1="50.8" y1="55.5" x2="50.8" y2="69.6"></line> </g> <g> <path class="st1" d="M0.8,42.9l2.4-14.4c1-6.3,6.5-10.9,12.8-10.9h0c6.4,0,11.8,4.6,12.8,10.9l1.6,9.6c1.1,6.5,6.7,11.3,13.3,11.3 h3.2c6.6,0,12.2-4.8,13.3-11.3l1.6-9.6c1-6.3,6.5-10.9,12.8-10.9h0c6.4,0,11.8,4.6,12.8,10.9l2.4,14.4"></path> <circle class="st1" cx="45.3" cy="35.3" r="5.5"></circle> <circle class="st1" cx="15.6" cy="6.3" r="5.5"></circle> <circle class="st1" cx="73.7" cy="6.3" r="5.5"></circle> <path class="st1" d="M24.7,39.9l1.6,12.2c0.2,1.8-1.2,3.4-3,3.4H8.2c-1.8,0-3.2-1.6-3-3.4l1.6-12.2"></path> <line class="st1" x1="68.2" y1="44.6" x2="68.2" y2="70.6"></line> <line class="st1" x1="81.6" y1="44.6" x2="81.6" y2="70.6"></line> <line class="st1" x1="9.1" y1="55.5" x2="9.1" y2="69.6"></line> <line class="st1" x1="22.5" y1="55.5" x2="22.5" y2="69.6"></line> <line class="st1" x1="40.4" y1="55.5" x2="40.4" y2="69.6"></line> <line class="st1" x1="50.8" y1="55.5" x2="50.8" y2="69.6"></line> </g> </g> </svg> 