<?xml version="1.0" encoding="UTF-8"?> <!-- Generator: Adobe Illustrator 24.1.0, SVG Export Plug-In . SVG Version: 6.00 Build 0) --> <svg xmlns="http://www.w3.org/2000/svg" xmlns:xlink="http://www.w3.org/1999/xlink" id="Layer_1" x="0px" y="0px" viewBox="0 0 97.4 100" style="enable-background:new 0 0 97.4 100;" xml:space="preserve"> <style type="text/css"> .st0{fill:none;stroke:#FFFFFF;stroke-width:2;stroke-linecap:round;stroke-linejoin:round;} .st1{fill:none;stroke:#FFFFFF;stroke-width:2;stroke-linecap:round;stroke-linejoin:round;stroke-miterlimit:10;} </style> <g> <path class="st0" d="M67.8,59.5c0-7.6-6-13.6-13.6-13.6s-13.6,6.1-13.6,13.6l0,0c0-7.6-6-13.6-13.6-13.6s-13.6,6.1-13.6,13.6 c0,0.2,0,0.4,0,0.6s0,0.2,0,0.4c0,11.8,27.2,35.8,27.2,35.8s27.2-24.1,27.2-35.8c0-0.1,0-0.2,0-0.4C67.8,60,67.8,59.8,67.8,59.5z"></path> <path class="st0" d="M13.4,59.3V23.3c0-3.4,3-6.3,6.4-6.3s6.3,2.8,6.3,6.3v13.1"></path> <path class="st0" d="M26,36.5V17.1c0-3.4,2.8-6.3,6.3-6.3c3.4,0,6.3,2.8,6.3,6.3v19.3"></path> <path class="st0" d="M38.6,36.5V10c0-3.4,2.8-6.3,6.3-6.3s6.4,2.8,6.4,6.3v26.4"></path> <path class="st0" d="M51.2,36.5V16c0-3.4,2.8-6.3,6.3-6.3s6.3,2.8,6.3,6.3l0,0v33.3"></path> <path class="st0" d="M64.1,49.5l8.8-11c2.1-2.6,6.1-3.1,8.7-0.8c2.5,2,3.1,5.7,1.2,8.3l-19.3,25"></path> </g> </svg> 