<?xml version="1.0" encoding="UTF-8"?> <!-- Generator: Adobe Illustrator 23.0.6, SVG Export Plug-In --> <svg xmlns="http://www.w3.org/2000/svg" xmlns:xlink="http://www.w3.org/1999/xlink" x="0px" y="0px" width="96.9px" height="95.2px" viewBox="0 0 96.9 95.2" style="enable-background:new 0 0 96.9 95.2;" xml:space="preserve"> <style type="text/css"> .st0{fill:none;stroke:#FFFFFF;stroke-width:1.5;stroke-linecap:round;stroke-linejoin:round;stroke-miterlimit:10;} .st1{fill:none;stroke:#000;stroke-width:1.5;stroke-linecap:round;stroke-linejoin:round;stroke-miterlimit:10;} </style> <defs> </defs> <g> <g> <path class="st0" d="M88.1,45.9c5,0,8.1,0,8.1,0l-19,48.5H4.4l19-48.5c0,0,22,0,41.8,0"></path> <path class="st0" d="M11.7,21.4c-11.1,0-10.9,0-10.9,0v73h9.8"></path> <polyline class="st0" points="11.7,75.8 11.7,0.8 60.4,0.8 60.4,15.7 73.5,15.7 73.5,28.9 "></polyline> <path class="st0" d="M11.7,88.4"></path> <line class="st0" x1="60.4" y1="0.8" x2="73.5" y2="15.7"></line> <circle class="st0" cx="76.5" cy="40.9" r="12.2"></circle> <polyline class="st0" points="69.8,42.4 75.4,47.2 84.4,35.7 "></polyline> <line class="st0" x1="19.8" y1="15.7" x2="52.8" y2="15.7"></line> <line class="st0" x1="19.8" y1="23.3" x2="64.7" y2="23.3"></line> <line class="st0" x1="19.8" y1="30.8" x2="59.7" y2="30.8"></line> <line class="st0" x1="19.8" y1="38.4" x2="59.7" y2="38.4"></line> </g> <g> <path class="st1" d="M88.1,45.9c5,0,8.1,0,8.1,0l-19,48.5H4.4l19-48.5c0,0,22,0,41.8,0"></path> <path class="st1" d="M11.7,21.4c-11.1,0-10.9,0-10.9,0v73h9.8"></path> <polyline class="st1" points="11.7,75.8 11.7,0.8 60.4,0.8 60.4,15.7 73.5,15.7 73.5,28.9 "></polyline> <path class="st1" d="M11.7,88.4"></path> <line class="st1" x1="60.4" y1="0.8" x2="73.5" y2="15.7"></line> <circle class="st1" cx="76.5" cy="40.9" r="12.2"></circle> <polyline class="st1" points="69.8,42.4 75.4,47.2 84.4,35.7 "></polyline> <line class="st1" x1="19.8" y1="15.7" x2="52.8" y2="15.7"></line> <line class="st1" x1="19.8" y1="23.3" x2="64.7" y2="23.3"></line> <line class="st1" x1="19.8" y1="30.8" x2="59.7" y2="30.8"></line> <line class="st1" x1="19.8" y1="38.4" x2="59.7" y2="38.4"></line> </g> </g> </svg> 