<?xml version="1.0" encoding="UTF-8"?> <!-- Generator: Adobe Illustrator 23.0.6, SVG Export Plug-In --> <svg xmlns="http://www.w3.org/2000/svg" xmlns:xlink="http://www.w3.org/1999/xlink" x="0px" y="0px" width="64.4px" height="79.9px" viewBox="0 0 64.4 79.9" style="enable-background:new 0 0 64.4 79.9;" xml:space="preserve"> <style type="text/css"> .st0{fill:#FFFFFF;stroke:#000000;stroke-width:2;stroke-linecap:round;stroke-linejoin:round;stroke-miterlimit:10;} .st1{fill:none;stroke:#000000;stroke-width:1.5;stroke-linecap:round;stroke-linejoin:round;stroke-miterlimit:10;} </style> <defs> </defs> <g> <path class="st0" d="M0,66.4"></path> <path class="st0" d="M0,35.3"></path> <g> <path class="st1" d="M49.7,48c0-6.3-5.1-11.5-11.5-11.5c-6.3,0-11.5,5.1-11.5,11.5l0,0c0-6.3-5.1-11.5-11.5-11.5S3.7,41.6,3.7,48 c0,0.2,0,0.3,0,0.5c0,0.1,0,0.2,0,0.3c0,10,23,30.3,23,30.3s23-20.4,23-30.3c0-0.1,0-0.2,0-0.3C49.6,48.3,49.7,48.1,49.7,48z"></path> <g> <path class="st1" d="M3.7,47.7V17.3C3.7,14.4,6.1,12,9,12c2.9,0,5.3,2.4,5.3,5.3v11.1"></path> <path class="st1" d="M14.4,28.4V12.1c0-2.9,2.4-5.3,5.3-5.3c2.9,0,5.3,2.4,5.3,5.3v16.3"></path> <path class="st1" d="M25,28.4V6.1c0-2.9,2.4-5.3,5.3-5.3c2.9,0,5.3,2.4,5.3,5.3v22.3"></path> <path class="st1" d="M35.6,28.4V11.1c0-2.9,2.4-5.3,5.3-5.3c2.9,0,5.3,2.4,5.3,5.3v28.6"></path> </g> <path class="st1" d="M46.2,39.8l7.9-9.7c1.8-2.4,5.1-2.8,7.4-1c2.3,1.8,2.7,5,1,7.3L47.1,56"></path> </g> </g> </svg> 