<?xml version="1.0" encoding="UTF-8"?> <!-- Generator: Adobe Illustrator 23.0.6, SVG Export Plug-In --> <svg xmlns="http://www.w3.org/2000/svg" xmlns:xlink="http://www.w3.org/1999/xlink" x="0px" y="0px" width="69.7px" height="59px" viewBox="0 0 69.7 59" style="enable-background:new 0 0 69.7 59;" xml:space="preserve"> <style type="text/css"> .st0{fill:none;stroke:#000000;stroke-width:1.5;stroke-miterlimit:12;} </style> <defs> </defs> <g> <path class="st0" d="M40.2,12.2c-2.7,0-5.1,1.7-6,4.1c-0.1,0.2-0.4,0.2-0.5,0c-1-2.7-3.8-4.5-7-4c-2.6,0.4-4.8,2.4-5.3,5 c-1.5,7.1,9.2,14.5,11.9,18.4c0.3,0.4,0.9,0.4,1.2,0c2.5-3.8,12-11,12-17C46.6,15.1,43.7,12.2,40.2,12.2z"></path> <path class="st0" d="M68.9,7.7c0-3.8-3.1-6.9-6.9-6.9l-54.3,0c-3.8,0-6.9,3.1-6.9,6.9l0,30.8c0,3.8,3.1,6.9,6.9,6.9h2v11 c0,1.6,1.9,2.4,3,1.3L26,45.4l36,0c3.8,0,6.9-3.1,6.9-6.9L68.9,7.7z"></path> </g> </svg> 