<?xml version="1.0" encoding="UTF-8"?> <!-- Generator: Adobe Illustrator 24.1.0, SVG Export Plug-In . SVG Version: 6.00 Build 0) --> <svg xmlns="http://www.w3.org/2000/svg" xmlns:xlink="http://www.w3.org/1999/xlink" id="Layer_1" x="0px" y="0px" viewBox="0 0 97.4 100" style="enable-background:new 0 0 97.4 100;" xml:space="preserve"> <style type="text/css"> .st0{fill:none;stroke:#FFFFFF;stroke-width:2;stroke-linecap:round;stroke-linejoin:round;} .st1{fill:none;stroke:#FFFFFF;stroke-width:2;stroke-linecap:round;stroke-linejoin:round;stroke-miterlimit:10;} </style> <g> <path class="st0" d="M55.4,28.2c-3.4,0-6.4,2-7.6,5.2c0,0.1-0.3,0.3-0.4,0.3c-0.1,0-0.1-0.1-0.3-0.3c-1.7-4.2-6.5-6.2-10.7-4.6 c-2.5,1-4.4,3.2-5,5.8C29.6,43.6,43.2,53,46.7,58c0.3,0.4,0.9,0.5,1.3,0.3c0.1-0.1,0.1-0.1,0.3-0.3c3.2-4.8,15.2-14,15.2-21.6 C63.6,31.8,60,28.2,55.4,28.2z"></path> <path class="st0" d="M92,22.3c0-4.8-3.9-8.8-8.8-8.8l0,0H14.2c-4.8,0-8.8,3.9-8.8,8.8l0,0v39.1c0,4.8,3.9,8.8,8.8,8.8l0,0h2.5v14 c0,1.3,1,2.3,2.3,2.3c0.5,0,1.1-0.3,1.5-0.6l16.9-15.6h45.7c4.8,0,8.8-3.9,8.8-8.8L92,22.3z"></path> </g> </svg> 