<?xml version="1.0" encoding="UTF-8"?> <!-- Generator: Adobe Illustrator 24.1.0, SVG Export Plug-In . SVG Version: 6.00 Build 0) --> <svg xmlns="http://www.w3.org/2000/svg" xmlns:xlink="http://www.w3.org/1999/xlink" id="Layer_1" x="0px" y="0px" viewBox="0 0 97.4 100" style="enable-background:new 0 0 97.4 100;" xml:space="preserve"> <style type="text/css"> .st0{fill:none;stroke:#FFFFFF;stroke-width:2;stroke-linecap:round;stroke-linejoin:round;} .st1{fill:none;stroke:#FFFFFF;stroke-width:2;stroke-linecap:round;stroke-linejoin:round;stroke-miterlimit:10;} </style> <path class="st0" d="M4.2,53.2l2.4-14.4c1-6.3,6.5-10.9,12.8-10.9l0,0c6.4,0,11.8,4.6,12.8,10.9l1.6,9.7c1.1,6.5,6.7,13.3,13.3,13.3 h3.2c6.6,0,12.2-6.8,13.3-13.3l1.6-9.7c1-6.3,6.5-10.9,12.8-10.9l0,0c6.4,0,11.8,4.6,12.8,10.9l2.4,14.4"></path> <circle class="st0" cx="48.8" cy="46.7" r="5.5"></circle> <circle class="st0" cx="19" cy="15.6" r="5.5"></circle> <circle class="st0" cx="77.1" cy="15.6" r="5.5"></circle> <line class="st0" x1="71.6" y1="58.9" x2="71.6" y2="92.9"></line> <line class="st0" x1="85" y1="58.9" x2="85" y2="92.9"></line> <line class="st0" x1="12.5" y1="69.8" x2="12.5" y2="91.9"></line> <line class="st0" x1="25.9" y1="69.8" x2="25.9" y2="91.9"></line> <line class="st0" x1="43.9" y1="69.8" x2="43.9" y2="91.9"></line> <line class="st0" x1="54.3" y1="69.8" x2="54.3" y2="91.9"></line> <path class="st0" d="M28.1,51.2l1.6,15.2c0.2,1.6-0.9,3.2-2.6,3.4c-0.1,0-0.3,0-0.4,0h-15c-1.7,0-3-1.3-3-3c0-0.1,0-0.3,0-0.4 l1.6-15.2"></path> </svg> 