<?xml version="1.0" encoding="UTF-8"?> <!-- Generator: Adobe Illustrator 24.1.0, SVG Export Plug-In . SVG Version: 6.00 Build 0) --> <svg xmlns="http://www.w3.org/2000/svg" xmlns:xlink="http://www.w3.org/1999/xlink" id="Layer_1" x="0px" y="0px" viewBox="0 0 97.4 100" style="enable-background:new 0 0 97.4 100;" xml:space="preserve"> <style type="text/css"> .st0{fill:none;stroke:#FFFFFF;stroke-width:2;stroke-linecap:round;stroke-linejoin:round;} .st1{fill:none;stroke:#FFFFFF;stroke-width:2;stroke-linecap:round;stroke-linejoin:round;stroke-miterlimit:10;} </style> <g> <path class="st0" d="M89.3,45.2h6.1l-19,52.7H2.6l19.1-52.7h44.8"></path> <path class="st0" d="M12.9,20.7H2v77.2h9.7"></path> <polyline class="st0" points="12.9,69 12.9,4 61.6,4 61.6,19 74.7,19 74.7,28.2 "></polyline> <line class="st0" x1="61.6" y1="4" x2="74.7" y2="19"></line> <circle class="st0" cx="77.8" cy="40.1" r="12.2"></circle> <polyline class="st0" points="71.1,41.7 76.7,46.5 85.6,35 "></polyline> <line class="st0" x1="21.1" y1="15" x2="54.1" y2="15"></line> <line class="st0" x1="21.1" y1="22.5" x2="57.1" y2="22.5"></line> <line class="st0" x1="21.1" y1="30.1" x2="60.9" y2="30.1"></line> <line class="st0" x1="21.1" y1="37.6" x2="60.9" y2="37.6"></line> <polyline class="st0" points="71.1,41.7 76.7,46.5 85.6,35 "></polyline> </g> </svg> 